<?xml version="1.0" encoding="utf-8"?>
<!-- Generator: Adobe Illustrator 26.3.1, SVG Export Plug-In . SVG Version: 6.00 Build 0)  -->
<svg version="1.0" xmlns="http://www.w3.org/2000/svg" xmlns:xlink="http://www.w3.org/1999/xlink" x="0px" y="0px"
	 viewBox="0 0 213.8 74.1" enable-background="new 0 0 213.8 74.1" xml:space="preserve">
<g id="pincel">
	<g>
		<path fill="#000834" d="M67.6,23.9h6.7v4.2h0.1c1-1.7,2.4-3,4.1-3.8c1.7-0.8,3.6-1.2,5.6-1.2c2.2,0,4.1,0.4,5.8,1.1
			c1.7,0.8,3.2,1.8,4.4,3.2c1.2,1.3,2.1,2.9,2.8,4.7c0.6,1.8,0.9,3.8,0.9,5.8c0,2.1-0.3,4-1,5.8c-0.7,1.8-1.6,3.4-2.8,4.7
			C93.1,50,91.6,51,90,51.8c-1.7,0.8-3.5,1.1-5.5,1.1c-1.3,0-2.5-0.1-3.5-0.4c-1-0.3-1.9-0.6-2.7-1.1c-0.8-0.4-1.5-0.9-2-1.4
			c-0.6-0.5-1-1-1.4-1.4h-0.2v17h-7.1V23.9z M91,38.1c0-1.1-0.2-2.2-0.6-3.2c-0.4-1-0.9-1.9-1.6-2.7c-0.7-0.8-1.6-1.4-2.6-1.9
			c-1-0.5-2.2-0.7-3.5-0.7c-1.3,0-2.5,0.2-3.5,0.7c-1,0.5-1.9,1.1-2.6,1.9c-0.7,0.8-1.3,1.7-1.6,2.7c-0.4,1-0.6,2.1-0.6,3.2
			c0,1.1,0.2,2.2,0.6,3.2c0.4,1,0.9,1.9,1.6,2.7c0.7,0.8,1.6,1.4,2.6,1.9c1,0.5,2.2,0.7,3.5,0.7c1.3,0,2.5-0.2,3.5-0.7
			c1-0.5,1.9-1.1,2.6-1.9c0.7-0.8,1.3-1.7,1.6-2.7C90.8,40.2,91,39.2,91,38.1z"/>
		<path fill="#000834" d="M100.3,14.3c0-1.1,0.4-2.1,1.3-3c0.8-0.8,1.9-1.3,3.2-1.3c1.3,0,2.4,0.4,3.3,1.2c0.9,0.8,1.3,1.8,1.3,3
			c0,1.2-0.4,2.2-1.3,3c-0.9,0.8-2,1.2-3.3,1.2c-1.3,0-2.4-0.4-3.2-1.3C100.7,16.5,100.3,15.5,100.3,14.3z M101.3,23.9h7.1v28.3
			h-7.1V23.9z"/>
		<path fill="#000834" d="M112.9,23.9h6.7v4.5h0.1c0.7-1.4,1.7-2.6,3.1-3.7c1.4-1,3.2-1.6,5.6-1.6c1.9,0,3.5,0.3,4.8,0.9
			c1.3,0.6,2.4,1.5,3.2,2.5c0.8,1,1.4,2.2,1.8,3.5c0.4,1.3,0.5,2.7,0.5,4.2v17.9h-7.1V37.9c0-0.8,0-1.7-0.1-2.6s-0.3-1.9-0.6-2.7
			c-0.3-0.8-0.9-1.6-1.6-2.1c-0.7-0.6-1.7-0.9-2.9-0.9c-1.2,0-2.2,0.2-3,0.6c-0.8,0.4-1.5,0.9-2,1.6c-0.5,0.7-0.9,1.4-1.1,2.3
			c-0.2,0.9-0.4,1.8-0.4,2.7v15.4h-7.1V23.9z"/>
		<path fill="#000834" d="M162.5,32.4c-0.8-0.9-1.7-1.6-2.6-2.1c-0.9-0.5-1.8-0.8-2.8-0.8c-1.3,0-2.5,0.2-3.5,0.7
			c-1,0.5-1.9,1.1-2.6,1.9c-0.7,0.8-1.3,1.7-1.6,2.7c-0.4,1-0.6,2.1-0.6,3.2c0,1.1,0.2,2.2,0.6,3.2c0.4,1,0.9,1.9,1.6,2.7
			c0.7,0.8,1.6,1.4,2.6,1.9c1,0.5,2.2,0.7,3.5,0.7c1.1,0,2.1-0.2,3.1-0.7c0.9-0.5,1.7-1.1,2.4-2l4.7,5.1c-0.7,0.7-1.5,1.3-2.4,1.8
			c-0.9,0.5-1.9,0.9-2.8,1.2c-0.9,0.3-1.8,0.5-2.7,0.7c-0.9,0.1-1.6,0.2-2.2,0.2c-2.1,0-4.1-0.4-6-1.1c-1.9-0.7-3.5-1.7-4.9-3
			c-1.4-1.3-2.5-2.9-3.3-4.7c-0.8-1.8-1.2-3.9-1.2-6.1c0-2.2,0.4-4.3,1.2-6.1c0.8-1.8,1.9-3.4,3.3-4.7c1.4-1.3,3-2.3,4.9-3
			c1.9-0.7,3.9-1.1,6-1.1c1.8,0,3.6,0.3,5.5,1c1.8,0.7,3.4,1.8,4.8,3.3L162.5,32.4z"/>
		<path fill="#000834" d="M173.7,40.6c0.2,2.1,1.1,3.8,2.5,4.9s3.1,1.8,5.1,1.8c1.8,0,3.2-0.4,4.4-1.1c1.2-0.7,2.2-1.6,3.2-2.7
			l5.1,3.8c-1.6,2-3.5,3.5-5.5,4.4c-2,0.9-4.2,1.3-6.4,1.3c-2.1,0-4.1-0.4-6-1.1c-1.9-0.7-3.5-1.7-4.9-3c-1.4-1.3-2.5-2.9-3.3-4.7
			c-0.8-1.8-1.2-3.9-1.2-6.1c0-2.2,0.4-4.3,1.2-6.1c0.8-1.8,1.9-3.4,3.3-4.7c1.4-1.3,3-2.3,4.9-3c1.9-0.7,3.9-1.1,6-1.1
			c2,0,3.8,0.3,5.4,1c1.6,0.7,3,1.7,4.2,3c1.2,1.3,2.1,2.9,2.7,4.8c0.6,1.9,1,4.1,1,6.6v1.9H173.7z M188.2,35.3
			c0-2.1-0.7-3.7-1.9-4.9c-1.3-1.2-3-1.8-5.2-1.8c-2.1,0-3.8,0.6-5,1.8c-1.2,1.2-2,2.8-2.3,4.9H188.2z"/>
		<path fill="#000834" d="M198.5,7.7h7.1v44.5h-7.1V7.7z"/>
	</g>
</g>
<g id="logo_00000154390398352072314470000017046602247236303546_" enable-background="new    ">
	<g id="logo">
		<g>
			<linearGradient id="SVGID_1_" gradientUnits="userSpaceOnUse" x1="31.8161" y1="7.8642" x2="31.8161" y2="66.2142">
				<stop  offset="0" style="stop-color:#2CF484"/>
				<stop  offset="1" style="stop-color:#4197FC"/>
			</linearGradient>
			<path fill-rule="evenodd" clip-rule="evenodd" fill="url(#SVGID_1_)" d="M25.5,8.1c0,0-16.4-1.2-16.4,16.5s0.8,41.6,0.8,41.6
				s17.6-7.4,15.4-13.7C14.6,22.6,25.5,8.1,25.5,8.1z M34.5,7.9c-1.1-0.1-4.8,0-4.8,0c-6,12.9-6.1,24.5-0.7,42
				c0.1,0.2,5.1-0.5,6.2-0.7c11.4-2.3,19.4-9.4,19.4-20.7C54.6,17.1,45.6,8.9,34.5,7.9z"/>
		</g>
	</g>
</g>
</svg>
